<mxfile host="Electron" modified="2023-10-22T02:07:11.009Z" agent="Mozilla/5.0 (Windows NT 10.0; Win64; x64) AppleWebKit/537.36 (KHTML, like Gecko) draw.io/22.0.3 Chrome/114.0.5735.289 Electron/25.8.4 Safari/537.36" etag="8u4sVg1J0m2I-bHueCQ8" version="22.0.3" type="device">
  <diagram name="Page-1" id="G4stqSm4xttv67sY9pB8">
    <mxGraphModel dx="2074" dy="1197" grid="1" gridSize="10" guides="1" tooltips="1" connect="1" arrows="1" fold="1" page="1" pageScale="1" pageWidth="827" pageHeight="1169" math="0" shadow="0">
      <root>
        <mxCell id="0" />
        <mxCell id="1" parent="0" />
        <mxCell id="4aX3d6jqLoLE5mMplSSs-1" value="Usuario" style="shape=umlActor;verticalLabelPosition=bottom;verticalAlign=top;html=1;outlineConnect=0;" parent="1" vertex="1">
          <mxGeometry x="240" y="549" width="30" height="60" as="geometry" />
        </mxCell>
        <mxCell id="4aX3d6jqLoLE5mMplSSs-2" value="Procesamiento y Almacenamiento" style="swimlane;whiteSpace=wrap;html=1;startSize=40;" parent="1" vertex="1">
          <mxGeometry x="720" y="400" width="320" height="270" as="geometry" />
        </mxCell>
        <mxCell id="4aX3d6jqLoLE5mMplSSs-4" value="Google SQL" style="shape=cylinder3;whiteSpace=wrap;html=1;boundedLbl=1;backgroundOutline=1;size=15;" parent="4aX3d6jqLoLE5mMplSSs-2" vertex="1">
          <mxGeometry x="80" y="110" width="170" height="110" as="geometry" />
        </mxCell>
        <mxCell id="4aX3d6jqLoLE5mMplSSs-60" value="" style="editableCssRules=.*;html=1;shape=image;verticalLabelPosition=bottom;labelBackgroundColor=#ffffff;verticalAlign=top;aspect=fixed;imageAspect=0;image=data:image/svg+xml,PHN2ZyB4bWxucz0iaHR0cDovL3d3dy53My5vcmcvMjAwMC9zdmciIHhtbG5zOnY9Imh0dHBzOi8vdmVjdGEuaW8vbmFubyIgd2lkdGg9IjE0LjY1OTk5OTg0NzQxMjExIiBoZWlnaHQ9IjIwIiB2aWV3Qm94PSIwIDAgMTQuNjU5OTk5ODQ3NDEyMTEgMjAiPiYjeGE7CTxzdHlsZSB0eXBlPSJ0ZXh0L2NzcyI+JiN4YTsJLnN0MHtmaWxsOiM0Mjg1ZjQ7fSYjeGE7CS5zdDF7ZmlsbDojNjY5ZGY2O30mI3hhOwkuc3Qye2ZpbGw6I2FlY2JmYTt9JiN4YTsJPC9zdHlsZT4mI3hhOwk8c3R5bGU+JiN4YTsJCS5Ee2ZpbGwtcnVsZTpldmVub2RkfSYjeGE7CTwvc3R5bGU+JiN4YTsJPHBhdGggZD0iTTcuMzMgMTUuMzV2LTMuMDFMMCA4LjQ0djMuMDF6bTAgNC42NXYtMy4wMUwwIDEzLjA5djMuMDF6IiBjbGFzcz0ic3QyIEQiLz4mI3hhOwk8cGF0aCBkPSJNMTQuNjYgOC40NGwtNy4zMyAzLjl2My4wMWw3LjMzLTMuOXptMCA0LjY1bC03LjMzIDMuOVYyMGw3LjMzLTMuOXoiIGNsYXNzPSJzdDEgRCIvPiYjeGE7CTxwYXRoIGQ9Ik03LjMzIDB2My4wMWw3LjMzIDMuOVYzLjl6IiBjbGFzcz0ic3QwIEQiLz4mI3hhOwk8cGF0aCBkPSJNMCA2LjkxbDcuMzMtMy45VjBMMCAzLjl6IiBjbGFzcz0iRCBzdDEiLz4mI3hhOwk8cGF0aCBkPSJNNy4zMyAxMC43OVY3Ljc3TDAgMy44N3YzLjAyeiIgY2xhc3M9IkQgc3QyIi8+JiN4YTsJPHBhdGggZD0iTTE0LjY2IDMuODdsLTcuMzMgMy45djMuMDJsNy4zMy0zLjl6IiBjbGFzcz0iRCBzdDEiLz4mI3hhOzwvc3ZnPg==;" parent="4aX3d6jqLoLE5mMplSSs-2" vertex="1">
          <mxGeometry x="207" y="163" width="20" height="26.67" as="geometry" />
        </mxCell>
        <mxCell id="4aX3d6jqLoLE5mMplSSs-40" value="Datos de Terceros" style="swimlane;whiteSpace=wrap;html=1;" parent="1" vertex="1">
          <mxGeometry x="1241" y="121" width="480" height="200" as="geometry" />
        </mxCell>
        <mxCell id="4aX3d6jqLoLE5mMplSSs-42" value="" style="sketch=0;pointerEvents=1;shadow=0;dashed=0;html=1;strokeColor=#001DBC;fillColor=#0050ef;labelPosition=center;verticalLabelPosition=bottom;verticalAlign=top;outlineConnect=0;align=center;shape=mxgraph.office.concepts.web_page;fontColor=#ffffff;" parent="4aX3d6jqLoLE5mMplSSs-40" vertex="1">
          <mxGeometry x="80" y="80" width="60" height="70" as="geometry" />
        </mxCell>
        <mxCell id="4aX3d6jqLoLE5mMplSSs-43" value="" style="sketch=0;pointerEvents=1;shadow=0;dashed=0;html=1;strokeColor=#3700CC;fillColor=#6a00ff;labelPosition=center;verticalLabelPosition=bottom;verticalAlign=top;outlineConnect=0;align=center;shape=mxgraph.office.concepts.web_page;fontColor=#ffffff;" parent="4aX3d6jqLoLE5mMplSSs-40" vertex="1">
          <mxGeometry x="202" y="80" width="60" height="70" as="geometry" />
        </mxCell>
        <mxCell id="4aX3d6jqLoLE5mMplSSs-44" value="" style="sketch=0;pointerEvents=1;shadow=0;dashed=0;html=1;strokeColor=#2D7600;fillColor=#60a917;labelPosition=center;verticalLabelPosition=bottom;verticalAlign=top;outlineConnect=0;align=center;shape=mxgraph.office.concepts.web_page;fontColor=#ffffff;" parent="4aX3d6jqLoLE5mMplSSs-40" vertex="1">
          <mxGeometry x="320" y="80" width="60" height="70" as="geometry" />
        </mxCell>
        <mxCell id="4aX3d6jqLoLE5mMplSSs-45" value="Metacritic" style="text;html=1;strokeColor=none;fillColor=none;align=center;verticalAlign=middle;whiteSpace=wrap;rounded=0;" parent="4aX3d6jqLoLE5mMplSSs-40" vertex="1">
          <mxGeometry x="72" y="50" width="60" height="20" as="geometry" />
        </mxCell>
        <mxCell id="4aX3d6jqLoLE5mMplSSs-46" value="MercadoLibre" style="text;html=1;strokeColor=none;fillColor=none;align=center;verticalAlign=middle;whiteSpace=wrap;rounded=0;" parent="4aX3d6jqLoLE5mMplSSs-40" vertex="1">
          <mxGeometry x="197" y="50" width="60" height="20" as="geometry" />
        </mxCell>
        <mxCell id="4aX3d6jqLoLE5mMplSSs-47" value="PriceCharting" style="text;html=1;strokeColor=none;fillColor=none;align=center;verticalAlign=middle;whiteSpace=wrap;rounded=0;" parent="4aX3d6jqLoLE5mMplSSs-40" vertex="1">
          <mxGeometry x="311" y="50" width="60" height="20" as="geometry" />
        </mxCell>
        <mxCell id="4aX3d6jqLoLE5mMplSSs-41" value="Procesamiento y Analisis &lt;br&gt;(WEB Page)" style="swimlane;whiteSpace=wrap;html=1;startSize=55;" parent="1" vertex="1">
          <mxGeometry x="360" y="395" width="280" height="320" as="geometry" />
        </mxCell>
        <mxCell id="4aX3d6jqLoLE5mMplSSs-69" value="Repotes&lt;br&gt;Cloud Schedule &lt;br&gt;(Semanal)" style="swimlane;whiteSpace=wrap;html=1;startSize=62;" parent="4aX3d6jqLoLE5mMplSSs-41" vertex="1">
          <mxGeometry x="39" y="85" width="200" height="210" as="geometry" />
        </mxCell>
        <mxCell id="4aX3d6jqLoLE5mMplSSs-70" value="&amp;nbsp;Tabla de &lt;br&gt;clasificaciÃ³n" style="rounded=0;whiteSpace=wrap;html=1;" parent="4aX3d6jqLoLE5mMplSSs-69" vertex="1">
          <mxGeometry x="43" y="88" width="120" height="40" as="geometry" />
        </mxCell>
        <mxCell id="Ll6YvfOdJS9gK6RhpoKE-1" value="" style="sketch=0;html=1;verticalAlign=top;labelPosition=center;verticalLabelPosition=bottom;align=center;spacingTop=-6;fontSize=11;fontStyle=1;fontColor=#999999;shape=image;aspect=fixed;imageAspect=0;image=data:image/svg+xml,PHN2ZyB4bWxucz0iaHR0cDovL3d3dy53My5vcmcvMjAwMC9zdmciIHhtbG5zOnY9Imh0dHBzOi8vdmVjdGEuaW8vbmFubyIgd2lkdGg9IjM2MC4zMDM3NjY4NjA4MzYzIiBoZWlnaHQ9IjM3OC4wNTExNTgwNzc0MDg4IiB2aWV3Qm94PSItMC4wMDAxNjI0MjExNDM2MTM3NTU3IC0wLjAwMDEwMDAwNTk0OTIwNzExNTkyIDk1LjMzMDI2MTIzMDQ2ODc1IDEwMC4wMjYxMDAxNTg2OTE0Ij4mI3hhOzxzdHlsZSB0eXBlPSJ0ZXh0L2NzcyI+JiN4YTsJLnN0MHtmaWxsOiM0Mjg1ZjQ7fSYjeGE7CS5zdDF7ZmlsbDojYWVjYmZhO30mI3hhOwkuc3Qye2ZpbGw6IzY2OWRmNjt9JiN4YTs8L3N0eWxlPiYjeGE7CTxwYXRoIGNsYXNzPSJzdDAiIGQ9Ik03OS45NzEgNzcuNzE1bC03LjM1OSA3LjQ4OCA4LjYzOSA4LjQ5IDcuMzU5LTcuNDg4em0tNjUuMDk2LjA2MWwtOC42NDEgOC40OTIgNy4zNjEgNy40ODggOC42MzktOC40OXoiLz4mI3hhOwk8cGF0aCBjbGFzcz0ic3QxIiBkPSJNNzkuNTUzLjIyMWE1LjI1IDUuMjUgMCAwIDAtMy42NiA4Ljk4NEw4Ni4zODkgMTkuNThhNS4yNSA1LjI1IDAgMCAwIDguOTQxLTMuNzY1IDUuMjUgNS4yNSAwIDAgMC0xLjU2LTMuNzA0TDgzLjI3NSAxLjczOEE1LjI1IDUuMjUgMCAwIDAgNzkuNTUzLjIyMXpNMTUuOTE2IDBhNS4yNSA1LjI1IDAgMCAwLTMuNzIzIDEuNTE2TDEuNjk5IDExLjg5MWE1LjI1IDUuMjUgMCAwIDAtLjA0MyA3LjQyNCA1LjI1IDUuMjUgMCAwIDAgNy40MjQuMDQzTDE5LjU3NiA4Ljk4MkE1LjI1IDUuMjUgMCAwIDAgMTUuOTE2IDB6Ii8+JiN4YTsJPHBhdGggY2xhc3M9InN0MCIgZD0iTTQ4LjEzOCAyNi4yNGMxMy4zNDcgMCAyNS40MzIgMTEuMTM2IDI1LjMxIDI2LjQ4MSAwIDE1LjExLTEyLjI2NyAyNS42NzMtMjUuMTg5IDI1LjY3My0xMS4xNDkgMC0xOC4zMTctNS4xNzEtMjEuOTYtMTAuNzM4bDIxLjgzOS0xNS4wOTd6Ii8+JiN4YTsJPHBhdGggY2xhc3M9InN0MiIgZD0iTTgxLjI1IDkzLjY5M2w0LjY2NCA0LjU4NmE1LjI1IDUuMjUgMCAxIDAgNy4zNjEtNy40OWwtNC42NjYtNC41ODR6TTYuMjM0IDg2LjI2OEwxLjU3IDkwLjg1MWE1LjI1IDUuMjUgMCAwIDAtLjA2NSA3LjQyNCA1LjI1IDUuMjUgMCAwIDAgNy40MjQuMDY0bDQuNjY2LTQuNTg0ek00Ny4zNzEgNS41NzhDMjEuMzQ5IDUuNTc4LjE0NiAyNi43NzkuMTQ2IDUyLjgwMXMyMS4yMDMgNDcuMjI1IDQ3LjIyNSA0Ny4yMjUgNDcuMjI1LTIxLjIwMyA0Ny4yMjUtNDcuMjI1UzczLjM5MyA1LjU3OCA0Ny4zNzEgNS41Nzh6bTAgMTBhMzcuMTUgMzcuMTUgMCAwIDEgMzcuMjI1IDM3LjIyM2MwIDIwLjYxNy0xNi42MDcgMzcuMjI1LTM3LjIyNSAzNy4yMjVTMTAuMTQ2IDczLjQxOCAxMC4xNDYgNTIuODAxYTM3LjE1IDM3LjE1IDAgMCAxIDM3LjIyNS0zNy4yMjN6Ii8+JiN4YTs8L3N2Zz4=;" parent="4aX3d6jqLoLE5mMplSSs-69" vertex="1">
          <mxGeometry x="159" y="20" width="20.48" height="21.5" as="geometry" />
        </mxCell>
        <mxCell id="4aX3d6jqLoLE5mMplSSs-73" value="" style="shadow=0;dashed=0;html=1;strokeColor=#001DBC;fillColor=#0050ef;labelPosition=center;verticalLabelPosition=bottom;verticalAlign=top;align=center;outlineConnect=0;shape=mxgraph.veeam.2d.report;fontColor=#ffffff;" parent="4aX3d6jqLoLE5mMplSSs-41" vertex="1">
          <mxGeometry x="230" y="15" width="20" height="25" as="geometry" />
        </mxCell>
        <mxCell id="4aX3d6jqLoLE5mMplSSs-48" value="Crawler&amp;nbsp; Metacritic &lt;br&gt;(Cloud Functions)" style="swimlane;whiteSpace=wrap;html=1;startSize=40;fillColor=none;" parent="1" vertex="1">
          <mxGeometry x="1160" y="480" width="200" height="200" as="geometry" />
        </mxCell>
        <mxCell id="4aX3d6jqLoLE5mMplSSs-51" value="Crawler User Score" style="rounded=0;whiteSpace=wrap;html=1;" parent="4aX3d6jqLoLE5mMplSSs-48" vertex="1">
          <mxGeometry x="40" y="60" width="120" height="40" as="geometry" />
        </mxCell>
        <mxCell id="4aX3d6jqLoLE5mMplSSs-52" value="Crawler MetaScore" style="rounded=0;whiteSpace=wrap;html=1;" parent="4aX3d6jqLoLE5mMplSSs-48" vertex="1">
          <mxGeometry x="40" y="125" width="120" height="40" as="geometry" />
        </mxCell>
        <mxCell id="4aX3d6jqLoLE5mMplSSs-61" value="" style="sketch=0;outlineConnect=0;fillColor=#0050ef;strokeColor=#001DBC;dashed=0;verticalLabelPosition=bottom;verticalAlign=top;align=center;html=1;fontSize=12;fontStyle=0;aspect=fixed;pointerEvents=1;shape=mxgraph.aws4.glue_crawlers;fontColor=#ffffff;" parent="4aX3d6jqLoLE5mMplSSs-48" vertex="1">
          <mxGeometry x="160" y="7" width="30" height="30" as="geometry" />
        </mxCell>
        <mxCell id="4aX3d6jqLoLE5mMplSSs-49" value="Crawler&amp;nbsp; MercadoLibre&lt;br&gt;(Cloud Functions)" style="swimlane;whiteSpace=wrap;html=1;startSize=40;fillColor=none;" parent="1" vertex="1">
          <mxGeometry x="1400" y="480" width="200" height="200" as="geometry" />
        </mxCell>
        <mxCell id="4aX3d6jqLoLE5mMplSSs-53" value="Crawler&amp;nbsp; Precios Promedio" style="rounded=0;whiteSpace=wrap;html=1;" parent="4aX3d6jqLoLE5mMplSSs-49" vertex="1">
          <mxGeometry x="40" y="100" width="120" height="40" as="geometry" />
        </mxCell>
        <mxCell id="4aX3d6jqLoLE5mMplSSs-50" value="Scraping PriceCharting&lt;br&gt;(Cloud Functions)" style="swimlane;whiteSpace=wrap;html=1;startSize=40;fillColor=none;" parent="1" vertex="1">
          <mxGeometry x="1640" y="480" width="200" height="200" as="geometry" />
        </mxCell>
        <mxCell id="4aX3d6jqLoLE5mMplSSs-54" value="Scraper PriceCharting Data" style="rounded=0;whiteSpace=wrap;html=1;" parent="4aX3d6jqLoLE5mMplSSs-50" vertex="1">
          <mxGeometry x="40" y="100" width="120" height="40" as="geometry" />
        </mxCell>
        <mxCell id="4aX3d6jqLoLE5mMplSSs-56" value="Cloud Schedule (Semanal)" style="swimlane;whiteSpace=wrap;html=1;startSize=40;" parent="1" vertex="1">
          <mxGeometry x="1121" y="400" width="759" height="320" as="geometry" />
        </mxCell>
        <mxCell id="4aX3d6jqLoLE5mMplSSs-55" value="" style="sketch=0;html=1;verticalAlign=top;labelPosition=center;verticalLabelPosition=bottom;align=center;spacingTop=-6;fontSize=11;fontStyle=1;fontColor=#999999;shape=image;aspect=fixed;imageAspect=0;image=data:image/svg+xml,PHN2ZyB4bWxucz0iaHR0cDovL3d3dy53My5vcmcvMjAwMC9zdmciIHhtbG5zOnY9Imh0dHBzOi8vdmVjdGEuaW8vbmFubyIgd2lkdGg9IjM2MC4zMDM3NjY4NjA4MzYzIiBoZWlnaHQ9IjM3OC4wNTExNTgwNzc0MDg4IiB2aWV3Qm94PSItMC4wMDAxNjI0MjExNDM2MTM3NTU3IC0wLjAwMDEwMDAwNTk0OTIwNzExNTkyIDk1LjMzMDI2MTIzMDQ2ODc1IDEwMC4wMjYxMDAxNTg2OTE0Ij4mI3hhOzxzdHlsZSB0eXBlPSJ0ZXh0L2NzcyI+JiN4YTsJLnN0MHtmaWxsOiM0Mjg1ZjQ7fSYjeGE7CS5zdDF7ZmlsbDojYWVjYmZhO30mI3hhOwkuc3Qye2ZpbGw6IzY2OWRmNjt9JiN4YTs8L3N0eWxlPiYjeGE7CTxwYXRoIGNsYXNzPSJzdDAiIGQ9Ik03OS45NzEgNzcuNzE1bC03LjM1OSA3LjQ4OCA4LjYzOSA4LjQ5IDcuMzU5LTcuNDg4em0tNjUuMDk2LjA2MWwtOC42NDEgOC40OTIgNy4zNjEgNy40ODggOC42MzktOC40OXoiLz4mI3hhOwk8cGF0aCBjbGFzcz0ic3QxIiBkPSJNNzkuNTUzLjIyMWE1LjI1IDUuMjUgMCAwIDAtMy42NiA4Ljk4NEw4Ni4zODkgMTkuNThhNS4yNSA1LjI1IDAgMCAwIDguOTQxLTMuNzY1IDUuMjUgNS4yNSAwIDAgMC0xLjU2LTMuNzA0TDgzLjI3NSAxLjczOEE1LjI1IDUuMjUgMCAwIDAgNzkuNTUzLjIyMXpNMTUuOTE2IDBhNS4yNSA1LjI1IDAgMCAwLTMuNzIzIDEuNTE2TDEuNjk5IDExLjg5MWE1LjI1IDUuMjUgMCAwIDAtLjA0MyA3LjQyNCA1LjI1IDUuMjUgMCAwIDAgNy40MjQuMDQzTDE5LjU3NiA4Ljk4MkE1LjI1IDUuMjUgMCAwIDAgMTUuOTE2IDB6Ii8+JiN4YTsJPHBhdGggY2xhc3M9InN0MCIgZD0iTTQ4LjEzOCAyNi4yNGMxMy4zNDcgMCAyNS40MzIgMTEuMTM2IDI1LjMxIDI2LjQ4MSAwIDE1LjExLTEyLjI2NyAyNS42NzMtMjUuMTg5IDI1LjY3My0xMS4xNDkgMC0xOC4zMTctNS4xNzEtMjEuOTYtMTAuNzM4bDIxLjgzOS0xNS4wOTd6Ii8+JiN4YTsJPHBhdGggY2xhc3M9InN0MiIgZD0iTTgxLjI1IDkzLjY5M2w0LjY2NCA0LjU4NmE1LjI1IDUuMjUgMCAxIDAgNy4zNjEtNy40OWwtNC42NjYtNC41ODR6TTYuMjM0IDg2LjI2OEwxLjU3IDkwLjg1MWE1LjI1IDUuMjUgMCAwIDAtLjA2NSA3LjQyNCA1LjI1IDUuMjUgMCAwIDAgNy40MjQuMDY0bDQuNjY2LTQuNTg0ek00Ny4zNzEgNS41NzhDMjEuMzQ5IDUuNTc4LjE0NiAyNi43NzkuMTQ2IDUyLjgwMXMyMS4yMDMgNDcuMjI1IDQ3LjIyNSA0Ny4yMjUgNDcuMjI1LTIxLjIwMyA0Ny4yMjUtNDcuMjI1UzczLjM5MyA1LjU3OCA0Ny4zNzEgNS41Nzh6bTAgMTBhMzcuMTUgMzcuMTUgMCAwIDEgMzcuMjI1IDM3LjIyM2MwIDIwLjYxNy0xNi42MDcgMzcuMjI1LTM3LjIyNSAzNy4yMjVTMTAuMTQ2IDczLjQxOCAxMC4xNDYgNTIuODAxYTM3LjE1IDM3LjE1IDAgMCAxIDM3LjIyNS0zNy4yMjN6Ii8+JiN4YTs8L3N2Zz4=;" parent="4aX3d6jqLoLE5mMplSSs-56" vertex="1">
          <mxGeometry x="469" y="10" width="20.48" height="21.5" as="geometry" />
        </mxCell>
        <mxCell id="4aX3d6jqLoLE5mMplSSs-62" value="" style="sketch=0;outlineConnect=0;fillColor=#6a00ff;strokeColor=#3700CC;dashed=0;verticalLabelPosition=bottom;verticalAlign=top;align=center;html=1;fontSize=12;fontStyle=0;aspect=fixed;pointerEvents=1;shape=mxgraph.aws4.glue_crawlers;fontColor=#ffffff;" parent="1" vertex="1">
          <mxGeometry x="1566" y="486" width="30" height="30" as="geometry" />
        </mxCell>
        <mxCell id="4aX3d6jqLoLE5mMplSSs-63" value="" style="sketch=0;outlineConnect=0;fillColor=#60a917;strokeColor=#2D7600;dashed=0;verticalLabelPosition=bottom;verticalAlign=top;align=center;html=1;fontSize=12;fontStyle=0;aspect=fixed;pointerEvents=1;shape=mxgraph.aws4.glue_crawlers;fontColor=#ffffff;" parent="1" vertex="1">
          <mxGeometry x="1807" y="486" width="30" height="30" as="geometry" />
        </mxCell>
        <mxCell id="4aX3d6jqLoLE5mMplSSs-65" value="" style="endArrow=classic;startArrow=classic;html=1;rounded=0;entryX=0.5;entryY=0;entryDx=0;entryDy=0;" parent="1" edge="1">
          <mxGeometry width="50" height="50" relative="1" as="geometry">
            <mxPoint x="1480" y="323" as="sourcePoint" />
            <mxPoint x="1480" y="398" as="targetPoint" />
            <Array as="points">
              <mxPoint x="1480.5" y="358" />
            </Array>
          </mxGeometry>
        </mxCell>
        <mxCell id="4aX3d6jqLoLE5mMplSSs-66" value="" style="endArrow=classic;startArrow=classic;html=1;rounded=0;exitX=0.463;exitY=1.024;exitDx=0;exitDy=0;exitPerimeter=0;" parent="1" edge="1">
          <mxGeometry width="50" height="50" relative="1" as="geometry">
            <mxPoint x="878.71" y="624.6400000000001" as="sourcePoint" />
            <mxPoint x="1263" y="682" as="targetPoint" />
            <Array as="points">
              <mxPoint x="880" y="802" />
              <mxPoint x="1263" y="802" />
            </Array>
          </mxGeometry>
        </mxCell>
        <mxCell id="4aX3d6jqLoLE5mMplSSs-67" value="" style="endArrow=classic;html=1;rounded=0;entryX=0.5;entryY=1;entryDx=0;entryDy=0;" parent="1" edge="1">
          <mxGeometry width="50" height="50" relative="1" as="geometry">
            <mxPoint x="1242" y="802" as="sourcePoint" />
            <mxPoint x="1500" y="682" as="targetPoint" />
            <Array as="points">
              <mxPoint x="1502" y="802" />
            </Array>
          </mxGeometry>
        </mxCell>
        <mxCell id="4aX3d6jqLoLE5mMplSSs-68" value="" style="endArrow=classic;html=1;rounded=0;" parent="1" edge="1">
          <mxGeometry width="50" height="50" relative="1" as="geometry">
            <mxPoint x="1471" y="802" as="sourcePoint" />
            <mxPoint x="1721" y="682" as="targetPoint" />
            <Array as="points">
              <mxPoint x="1721" y="802" />
            </Array>
          </mxGeometry>
        </mxCell>
        <mxCell id="4aX3d6jqLoLE5mMplSSs-72" value="Detalle por articulo" style="rounded=0;whiteSpace=wrap;html=1;" parent="1" vertex="1">
          <mxGeometry x="442" y="628" width="120" height="45" as="geometry" />
        </mxCell>
        <mxCell id="4aX3d6jqLoLE5mMplSSs-74" value="" style="endArrow=classic;startArrow=classic;html=1;rounded=0;exitX=1;exitY=0.5;exitDx=0;exitDy=0;" parent="1" edge="1">
          <mxGeometry width="50" height="50" relative="1" as="geometry">
            <mxPoint x="640" y="580.5" as="sourcePoint" />
            <mxPoint x="800" y="580" as="targetPoint" />
            <Array as="points" />
          </mxGeometry>
        </mxCell>
        <mxCell id="4aX3d6jqLoLE5mMplSSs-75" value="" style="endArrow=classic;html=1;rounded=0;entryX=0;entryY=0.5;entryDx=0;entryDy=0;" parent="1" edge="1">
          <mxGeometry width="50" height="50" relative="1" as="geometry">
            <mxPoint x="280" y="580" as="sourcePoint" />
            <mxPoint x="360" y="579.5" as="targetPoint" />
          </mxGeometry>
        </mxCell>
      </root>
    </mxGraphModel>
  </diagram>
</mxfile>
